<svg width="27" height="27" viewBox="0 0 27 27" fill="none" xmlns="http://www.w3.org/2000/svg">
<circle cx="13.5" cy="13.5" r="13.5" fill="#C01717"/>
<path d="M19.9945 7.07094C19.9945 7.41816 19.9718 7.76538 19.9945 8.1126C20.0626 9.47977 19.4947 10.6082 18.5404 11.6065C16.8138 13.386 14.5873 14.3191 12.1563 14.7315C9.11189 15.2523 6.09021 15.0353 3.22757 13.9068C2.36423 13.5596 1.56905 13.0388 0.751152 12.5396C0.296764 12.2575 0.00141185 11.8452 0.0468506 11.2593C0.0922894 10.7167 0.0241312 10.1742 0.00141185 9.63168C-0.0213075 8.98064 0.228606 8.50322 0.864749 8.2428C1.41001 8.00409 2.00072 7.83048 2.54598 7.59177C2.88678 7.46156 3.20485 7.28795 3.5002 7.09264C3.86371 6.85393 3.97731 6.48501 3.88643 6.07268C3.81827 5.76887 3.77283 5.46505 3.68195 5.16123C3.47748 4.31489 3.68195 3.57705 4.24994 2.92601C5.45407 1.47203 7.04443 0.647385 8.8847 0.278465C12.2017 -0.372571 15.3143 0.083154 18.0861 2.01456C19.3356 2.88261 20.0172 4.14128 19.9945 5.66036C19.9718 6.13779 19.9945 6.59351 19.9945 7.07094ZM8.54391 12.366C9.02101 12.366 9.61172 12.2575 10.1797 12.1707C11.293 11.9754 12.4289 11.8235 13.4967 11.498C15.6551 10.8469 17.4499 9.69678 18.5404 7.72197C19.4038 6.15949 19.3583 4.4668 18.2678 3.36003C17.6998 2.7741 17.0182 2.25327 16.2685 1.90605C14.3374 0.951202 12.2472 0.690787 10.0888 0.907799C8.11224 1.10311 6.40828 1.86265 5.04512 3.25153C4.52257 3.79406 4.29538 4.40169 4.49985 5.13953C4.56801 5.37825 4.61345 5.61696 4.65889 5.85567C4.84064 6.78882 4.56801 7.43986 3.72739 7.91729C3.27301 8.1777 2.77318 8.35131 2.29607 8.56832C1.88712 8.76363 1.47817 8.95894 1.09194 9.15425C0.84203 9.21936 0.773871 9.43637 0.910188 9.67508C1.00107 9.89209 1.11466 10.1308 1.29642 10.261C1.84168 10.6516 2.36423 11.064 2.97765 11.3027C4.68161 12.0405 6.5446 12.4094 8.54391 12.366Z" transform="translate(3 6)" fill="white"/>
<path d="M5.49933 9.44134C4.04529 9.35453 2.47765 9.24603 1.02361 8.59499C0.819135 8.50819 0.61466 8.42138 0.478344 8.26947C0.273869 8.03076 -0.021483 7.74864 0.00123641 7.48823C0.0239558 7.27122 0.410186 7.05421 0.682818 6.924C1.13721 6.70699 1.61431 6.62018 2.0687 6.42487C3.40915 5.83894 3.90897 4.68878 3.40915 3.365C3.06836 2.45355 3.22739 1.95442 4.09073 1.4336C4.49968 1.19488 4.95406 0.999572 5.38573 0.804261C7.36232 -0.0637865 9.45251 -0.215695 11.5427 0.283433C12.4287 0.500445 13.2921 0.891066 14.0645 1.36849C15.4504 2.23654 15.8367 3.90753 15.1324 5.38321C14.3826 6.9674 13.0422 7.96566 11.3609 8.59499C9.49794 9.28943 7.58952 9.46304 5.49933 9.44134ZM11.4291 3.69052C11.6563 3.71222 11.838 3.79903 12.0198 3.90753C12.2924 4.08114 12.5651 4.27645 12.815 4.47176C13.0422 4.64537 13.8146 4.71048 13.9737 4.53687C14.0873 4.40666 14.0645 4.34156 14.0418 4.25475C14.0191 4.16795 13.9055 4.01604 13.6329 3.99434C13.3602 3.97264 12.815 3.97264 12.5651 3.88583C11.7699 3.60372 11.4064 3.03948 11.4745 2.21484C11.4973 2.01953 11.5881 1.80252 11.5881 1.60721C11.5881 1.32509 11.3155 1.23829 11.2701 1.23829C11.0883 1.25999 11.1337 1.25999 10.9974 1.34679C10.9293 1.39019 10.8384 1.71571 10.8611 1.82422C10.9065 2.14974 10.9974 2.45355 11.0201 2.77907C11.0656 3.21309 10.8838 3.53861 10.4522 3.73392C10.1568 3.86413 9.86145 3.95094 9.5661 4.10284C9.45251 4.16795 9.31619 4.18965 9.33891 4.42836C9.33891 4.53687 9.52066 4.68878 9.63426 4.68878C9.7933 4.71048 9.97505 4.64537 10.1114 4.55857C10.3613 4.38496 10.543 4.16795 10.793 4.01604C10.9747 3.84243 11.0883 3.66882 11.4291 3.69052Z" transform="translate(5.47656 7.8614)" fill="white"/>
</svg>
