<svg width="27" height="27" viewBox="0 0 27 27" fill="none" xmlns="http://www.w3.org/2000/svg">
<circle cx="13.5" cy="13.5" r="13.5" fill="#653F05"/>
<path d="M23 6.9924C23 5.81822 21.3974 4.81217 18.4871 4.15937C18.4484 4.15045 18.4101 4.14955 18.3726 4.15237C17.5554 2.97238 16.2933 2.05222 14.53 1.95511C14.4815 1.86272 14.4294 1.77253 14.3697 1.68738C13.9103 1.03163 13.1826 0.690581 12.2109 0.666018C11.7445 0.286647 11.0722 0 10.101 0C8.56823 0 7.8771 1.0772 7.67185 1.48064C6.57601 1.95966 5.59223 2.87933 4.85091 4.08658C2.9873 4.47386 0 5.35062 0 6.9924C0 7.95685 1.05553 8.73328 2.69155 9.30973C2.93236 9.91274 4.40018 12.5429 11.6739 12.5429C18.8543 12.5429 20.1134 9.97276 20.3193 9.30592C21.9491 8.72988 23 7.95472 23 6.9924ZM8.35876 2.02245C9.0448 1.80528 9.68657 1.83819 10.209 2.10318C8.92734 2.35344 6.62053 3.27798 5.73516 6.67628C5.68285 6.8774 5.80615 7.08217 6.01094 7.13355C6.04283 7.14162 6.07472 7.1453 6.10611 7.1453C6.27676 7.1453 6.4322 7.03252 6.47655 6.86271C7.43367 3.18886 10.1367 2.80122 10.8799 2.76482C11.0017 3.05323 11.0161 3.39359 10.9592 3.75478C10.1546 3.71429 8.54559 4.02567 7.66889 6.89112C7.60811 7.08979 7.7227 7.29947 7.92525 7.35916C7.96189 7.36993 7.99899 7.37504 8.03563 7.37504C8.20007 7.37504 8.35201 7.27008 8.40186 7.10739C9.06498 4.94002 10.1049 4.52356 10.7616 4.50153C10.3223 5.72844 9.4085 6.9334 9.39266 6.95371C9.26435 7.11836 9.29624 7.35425 9.46414 7.4805C9.53338 7.53261 9.61537 7.55783 9.69633 7.55783C9.81141 7.55783 9.925 7.50719 10.0005 7.41054C10.1288 7.24564 13.1241 3.35396 10.9945 1.70514C10.415 1.25647 9.69687 1.06484 8.91908 1.14106C9.19641 0.92753 9.58078 0.75166 10.1009 0.75166C11.1335 0.75166 11.857 1.1391 12.2509 1.90333C12.9178 3.19688 12.5117 5.38837 11.3064 7.0005C11.1814 7.16786 11.218 7.40296 11.3884 7.52582C11.4566 7.57498 11.5358 7.59873 11.6146 7.59873C11.7322 7.59873 11.8483 7.54563 11.9233 7.44533C13.3097 5.59101 13.7347 3.11742 12.9337 1.56375C12.9271 1.55093 12.9193 1.53779 12.9124 1.52485C13.2661 1.63596 13.5404 1.82992 13.7389 2.11301C14.6101 3.35519 13.8572 6.05656 13.4935 6.99268C13.4183 7.18644 13.5172 7.40374 13.7145 7.47788C13.7593 7.4945 13.8056 7.50261 13.851 7.50261C14.005 7.50261 14.1502 7.41062 14.2085 7.26111C14.2349 7.1932 14.5231 6.43998 14.7218 5.46525C15.0283 5.66666 15.4543 6.10233 15.635 7.02011C15.6704 7.19995 15.8306 7.32473 16.0102 7.32473C16.0344 7.32473 16.0588 7.32252 16.0832 7.31789C16.2907 7.27851 16.4265 7.08131 16.3863 6.87773C16.1051 5.44847 15.3022 4.8879 14.851 4.68022C14.8746 4.48765 14.8915 4.29168 14.9011 4.09502C15.4197 4.14115 16.6337 4.49699 17.1265 6.74386C17.1654 6.92002 17.3238 7.04042 17.5002 7.04042C17.5271 7.04042 17.5543 7.03771 17.5814 7.03211C17.788 6.9883 17.9192 6.7884 17.8749 6.58535C17.2685 3.82315 15.6159 3.39842 14.8941 3.34802C14.8784 3.13818 14.8495 2.93218 14.8059 2.73269C15.848 2.87671 17.8458 3.54334 18.6036 6.48088C18.6475 6.65118 18.8034 6.76445 18.9743 6.76445C19.0054 6.76445 19.0371 6.76077 19.0685 6.75295C19.2735 6.70207 19.3973 6.4975 19.3455 6.29641C19.3383 6.26829 19.3287 6.23992 19.321 6.21171C19.9145 6.43773 20.0014 6.60787 20.0067 6.60787C19.8652 7.06367 16.8911 7.91342 11.7048 7.91342C6.51641 7.91342 3.54207 7.06318 3.40255 6.62355C3.4031 6.62174 3.45812 6.48919 3.87234 6.30153C3.86946 6.31119 3.86604 6.32052 3.86321 6.33019C3.80514 6.52959 3.92248 6.7378 4.12578 6.79504C4.32832 6.85182 4.54058 6.73658 4.5991 6.53717C5.38689 3.83715 7.0578 2.43462 8.35876 2.02245ZM11.6739 11.7913C6.60057 11.7913 4.59035 10.4795 3.8279 9.655C5.98481 10.2204 8.78302 10.5144 11.5 10.5144C14.2631 10.5144 17.1112 10.2108 19.2823 9.62638C18.6545 10.4339 16.8323 11.7913 11.6739 11.7913ZM11.5 9.76279C5.17388 9.76279 0.765322 8.30286 0.765322 6.9924C0.765322 6.43642 1.73181 5.60071 4.37746 4.96437C4.31419 5.0998 4.254 5.23809 4.19651 5.37854C3.51752 5.58978 2.63828 5.94652 2.63828 6.6154C2.63828 8.23339 8.33734 8.665 11.7048 8.665C15.0723 8.665 20.7713 8.23339 20.7713 6.6154C20.7713 5.91688 19.8085 5.55257 19.0842 5.33945C19.061 5.33265 19.0377 5.32872 19.0145 5.32631C18.9722 5.22621 18.9279 5.12682 18.8804 5.02795C21.3419 5.66052 22.2347 6.46737 22.2347 6.99244C22.2347 8.30286 17.8261 9.76279 11.5 9.76279Z" transform="translate(2 9.45708)" fill="white"/>
<path d="M0.554794 5.04444C0.420779 5.20496 0.444664 5.44179 0.608108 5.57328C0.679346 5.63055 0.765299 5.65843 0.850501 5.65843C0.961381 5.65843 1.07097 5.61143 1.14671 5.5208C1.57893 5.00285 2.13575 3.70352 1.14946 2.49303C0.342788 1.50287 1.04158 0.724186 1.12603 0.636743C1.27226 0.488097 1.2688 0.251272 1.11807 0.106802C0.966842 -0.0379137 0.724949 -0.0353346 0.57697 0.113147C0.130783 0.561867 -0.448462 1.73482 0.552042 2.96255C1.3931 3.99508 0.588183 5.00347 0.554794 5.04444Z" transform="translate(12.648 2)" fill="white"/>
<path d="M0.374259 3.14002C0.240244 3.30066 0.264129 3.53736 0.427823 3.66885C0.498811 3.72613 0.584764 3.75401 0.669967 3.75401C0.780847 3.75401 0.890685 3.70705 0.966175 3.61637C1.25692 3.26783 1.63158 2.39376 0.968926 1.58024C0.56659 1.08625 0.878721 0.707776 0.94675 0.635561C1.09173 0.486793 1.08777 0.25095 0.937537 0.106849C0.786307 -0.0379898 0.544164 -0.0352879 0.396435 0.113194C0.0917657 0.419655 -0.30561 1.21884 0.371508 2.04972C0.801772 2.57815 0.41736 3.08635 0.374259 3.14002Z" transform="translate(8.98868 4.49554)" fill="white"/>
<path d="M0.37426 3.14002C0.240245 3.30054 0.26413 3.53736 0.427573 3.66885C0.498812 3.72613 0.584765 3.75401 0.669967 3.75401C0.780597 3.75401 0.890434 3.70705 0.966174 3.61637C1.25717 3.26783 1.63183 2.39376 0.968926 1.58024C0.56659 1.08625 0.878721 0.707776 0.946749 0.635561C1.09173 0.486793 1.08777 0.25095 0.937538 0.106849C0.786308 -0.0379898 0.544164 -0.0352879 0.396435 0.113194C0.0917653 0.419655 -0.30561 1.21884 0.371508 2.04984C0.802022 2.57815 0.417611 3.08623 0.37426 3.14002Z" transform="translate(17.0669 4.49554)" fill="white"/>
</svg>
