<svg width="27" height="27" viewBox="0 0 27 27" fill="none" xmlns="http://www.w3.org/2000/svg">
<circle cx="13.5" cy="13.5" r="13.5" fill="#17B5C0"/>
<path d="M3.50577 1.34609C3.43202 0.999717 3.10544 0.774821 2.76126 0.81348C2.87832 0.674591 2.95133 0.479775 2.91642 0.220751C2.89752 0.0813792 2.77066 -0.0163628 2.63006 0.00227954C2.49062 0.0211075 2.39295 0.149265 2.41166 0.288748C2.43201 0.4403 2.36822 0.51446 2.2899 0.550074C2.13255 0.463287 1.95199 0.413636 1.75996 0.413636C1.5679 0.413636 1.38734 0.463324 1.22996 0.550111C1.15167 0.514535 1.08795 0.440263 1.10826 0.288748C1.12702 0.149302 1.02935 0.0211075 0.889865 0.00227954C0.748934 -0.0162885 0.622226 0.0813792 0.603509 0.220751C0.568601 0.479626 0.641499 0.674331 0.758404 0.81322C0.601504 0.795321 0.444493 0.82852 0.31032 0.915604C0.157282 1.01483 0.05215 1.16772 0.0141598 1.34609C0.0141598 1.34609 0.0141598 1.34609 0.0141598 1.34616C-0.00210576 1.42225 -0.00440823 1.50254 0.00751245 1.58454C0.0181334 1.6584 0.0605801 1.72391 0.123749 1.76379C0.193713 1.80791 0.267836 1.83858 0.344114 1.85481C0.391871 1.86491 0.439962 1.87 0.487719 1.87C0.556161 1.87 0.623749 1.85901 0.688885 1.83866C0.734526 2.14971 0.830819 2.56289 0.964137 2.925C1.00094 3.02516 1.0963 3.09174 1.20307 3.09174H2.31656C2.42336 3.09174 2.51869 3.02516 2.55549 2.925C2.68889 2.5627 2.78522 2.1496 2.83089 1.83862C2.89603 1.85897 2.96362 1.86996 3.03206 1.86996C3.07982 1.86996 3.12791 1.86491 3.17566 1.85478C3.25146 1.83862 3.3254 1.80802 3.3957 1.76398C3.45905 1.72417 3.50164 1.65851 3.51227 1.58446C3.52419 1.50247 3.52188 1.42221 3.50562 1.34609C3.50577 1.34609 3.50577 1.34609 3.50577 1.34609ZM2.13511 2.58235H1.38478C1.24481 2.14767 1.16839 1.69216 1.16839 1.51465C1.16839 1.18841 1.43387 0.922994 1.76004 0.922994C2.0862 0.922994 2.35169 1.18841 2.35169 1.51465C2.35165 1.69197 2.27504 2.14741 2.13511 2.58235Z" transform="translate(10.3193 14.0607)" fill="white"/>
<path d="M10.5 0C4.70455 0 0 4.70455 0 10.5C0 16.2955 4.70455 21 10.5 21C16.2955 21 21 16.2955 21 10.5C21 4.70455 16.2955 0 10.5 0ZM10.5 19.4773C8.29545 19.4773 6.27273 18.6818 4.72727 17.3636L6.4313 15.6596C5.99948 15.296 6.41912 14.2225 6.19184 13.768L3.65909 16.2727C2.31818 14.7273 1.52273 12.7045 1.52273 10.5C1.52273 5.54545 5.54545 1.52273 10.5 1.52273C12.7045 1.52273 14.7273 2.31818 16.2727 3.63636L14.1208 5.85799C14.3253 6.40345 14.9649 6.74005 14.7149 7.39914L17.3636 4.70455C18.6818 6.27273 19.4773 8.29545 19.4773 10.4773C19.4773 15.4545 15.4545 19.4773 10.5 19.4773Z" transform="translate(3 3)" fill="white"/>
<path d="M0.254717 15.6215H4.88952H5.52013H8.70351C8.8441 15.6215 8.95822 15.5075 8.95822 15.3668V4.83928C8.95822 4.83649 8.95748 4.83389 8.95741 4.83114C8.95711 4.82201 8.95592 4.81317 8.95469 4.80429C8.95358 4.79623 8.95254 4.78818 8.95065 4.78019C8.94883 4.77258 8.94623 4.7653 8.94374 4.75798C8.94077 4.74922 8.93772 4.74046 8.93371 4.73188C8.9326 4.72943 8.93208 4.7269 8.93089 4.72449L7.41429 1.72226V0.254716C7.41429 0.114008 7.30021 0 7.15961 0H1.92732C1.78673 0 1.67261 0.114008 1.67261 0.254716V1.6585C1.67175 1.65998 1.67045 1.66106 1.66964 1.66262L0.0311947 4.71899C0.0308605 4.71966 0.0307858 4.72037 0.0304144 4.72103C0.0116607 4.75654 0 4.79635 0 4.83931V15.3668C0 15.5075 0.114082 15.6215 0.254717 15.6215ZM4.88952 15.1121H0.509396V5.09399H4.88952H5.26545V15.1121H4.88952ZM8.44883 15.1121H5.77485V5.09399H8.44883V15.1121ZM8.28951 4.5846H5.94667L7.15289 2.33452L8.28951 4.5846ZM2.18204 0.509396H6.9049V1.52819H2.18204V0.509396ZM2.04657 2.03758H6.73411L5.36876 4.58456H4.88956H0.681187L2.04657 2.03758Z" transform="translate(9.19186 5.50356)" fill="white"/>
</svg>
