<svg width="27" height="27" viewBox="0 0 27 27" fill="none" xmlns="http://www.w3.org/2000/svg">
<circle cx="13.5" cy="13.5" r="13.5" fill="#FADE14"/>
<path d="M10.5 0C4.70455 0 0 4.70455 0 10.5C0 16.2955 4.70455 21 10.5 21C16.2955 21 21 16.2955 21 10.5C21 4.70455 16.2955 0 10.5 0ZM10.5 19.4773C8.29545 19.4773 6.27273 18.6818 4.72727 17.3636L6.79545 15.2955C6.36364 14.9318 6.04545 14.5682 5.81818 14.1136L3.65909 16.2727C2.31818 14.7273 1.52273 12.7045 1.52273 10.5C1.52273 5.54545 5.54545 1.52273 10.5 1.52273C12.7045 1.52273 14.7273 2.31818 16.2727 3.63636L15.0227 4.88636C15.2273 5.43182 15.2955 6.36364 15.0455 7.02273L17.3636 4.70455C18.6818 6.27273 19.4773 8.29545 19.4773 10.4773C19.4773 15.4545 15.4545 19.4773 10.5 19.4773Z" transform="translate(3 3)" fill="white"/>
<path d="M0.590909 0C0.272727 0 0 0.272727 0 0.590909V10.8182C0 11.1364 0.272727 11.4091 0.590909 11.4091C0.909091 11.4091 1.18182 11.1364 1.18182 10.8182V0.590909C1.18182 0.272727 0.909091 0 0.590909 0Z" transform="translate(12.9092 10.1818)" fill="white"/>
<path d="M1.02273 0C1.63636 0.477273 2.04545 1.22727 2.04545 2.06818C2.04545 2.90909 1.63636 3.65909 1.02273 4.13636C0.409091 3.65909 0 2.90909 0 2.06818C0 1.22727 0.409091 0.477273 1.02273 0Z" transform="translate(12.4773 5.52274)" fill="white"/>
<path d="M2.66683 0C2.84865 0.75 2.71229 1.59091 2.16683 2.25C1.6441 2.90909 0.848649 3.25 0.0759217 3.22727C-0.105896 2.47727 0.0304679 1.63636 0.575922 0.977273C1.09865 0.340909 1.87138 0 2.66683 0Z" transform="translate(14.7649 8.38637)" fill="white"/>
<path d="M2.87926 0.0170455C3.01563 0.789773 2.78835 1.60795 2.19744 2.22159C1.62926 2.83523 0.81108 3.10795 0.0383522 3.03977C-0.0980114 2.26705 0.129262 1.44886 0.720171 0.835227C1.28835 0.198864 2.10653 -0.0738636 2.87926 0.0170455Z" transform="translate(14.8025 11.8693)" fill="white"/>
<path d="M2.87926 0.0102273C3.01563 0.782955 2.78835 1.60114 2.19744 2.21477C1.62926 2.82841 0.81108 3.10114 0.0383522 3.03295C-0.0980114 2.26023 0.129262 1.44204 0.720171 0.828408C1.28835 0.214772 2.10653 -0.0579545 2.87926 0.0102273Z" transform="translate(14.939 15.2398)" fill="white"/>
<path d="M2.16321 0.978339C2.68594 1.63743 2.84503 2.47834 2.66321 3.22834C1.89048 3.25107 1.09503 2.91016 0.572302 2.25107C0.0495748 1.59198 -0.109516 0.751067 0.0723019 0.00106673C0.867756 -0.0216605 1.64048 0.319248 2.16321 0.978339Z" transform="translate(9.49585 8.40802)" fill="white"/>
<path d="M2.1875 0.82841C2.75568 1.44205 2.98295 2.26023 2.86932 3.03295C2.09659 3.10114 1.27841 2.82841 0.710227 2.21477C0.142045 1.60114 -0.0852273 0.782955 0.0284091 0.0102273C0.801136 -0.0579546 1.61932 0.214773 2.1875 0.82841Z" transform="translate(9.28979 11.8534)" fill="white"/>
<path d="M2.1875 0.828408C2.75568 1.44204 2.98295 2.26023 2.86932 3.03295C2.09659 3.10114 1.27841 2.82841 0.710227 2.21477C0.142045 1.60114 -0.0852273 0.782955 0.0284091 0.0102273C0.801136 -0.0579545 1.61932 0.214772 2.1875 0.828408Z" transform="translate(9.15332 15.2398)" fill="white"/>
</svg>
