<svg width="27" height="27" viewBox="0 0 27 27" fill="none" xmlns="http://www.w3.org/2000/svg">
<circle cx="13.5" cy="13.5" r="13.5" fill="#FD7900"/>
<path d="M1.41479 7.27903C1.68518 7.18416 1.83969 6.88055 1.74312 6.6149V6.59593C1.5693 6.10257 1.45342 5.66614 1.47273 5.26766C1.49205 4.86919 1.64655 4.45173 1.859 3.95838C1.95557 3.7117 2.07145 3.46502 2.18733 3.1804C2.30321 2.87679 2.41908 2.49729 2.41908 2.13676C2.4384 1.77623 2.38046 1.39673 2.26458 1.07415C2.20664 0.903375 2.12939 0.751573 2.03282 0.599772C1.93625 0.447971 1.83969 0.315144 1.68518 0.163343C1.5693 0.0305169 1.37617 -0.0264087 1.20235 0.0115416C0.93196 0.0684672 0.75814 0.33412 0.81608 0.599772L0.854707 0.789524C0.87402 0.846449 0.912647 0.979275 0.951274 1.07415C0.970587 1.188 1.00921 1.28288 1.00921 1.39673C1.02853 1.60546 1.02853 1.81418 0.9899 2.00393C0.951274 2.21266 0.893334 2.38344 0.777454 2.59216L0.410501 3.37015C0.294621 3.6358 0.178741 3.9394 0.101488 4.26198C0.0242349 4.58456 -0.0143916 4.94509 0.00492169 5.30561C0.0628616 6.02667 0.391188 6.67183 0.81608 7.14621C0.970587 7.27903 1.20235 7.35493 1.41479 7.27903Z" transform="translate(9.2247 4.30359)" fill="white"/>
<path d="M1.43411 7.27903C1.70449 7.18416 1.859 6.88055 1.76243 6.6149L1.74312 6.59593C1.5693 6.10257 1.45342 5.66614 1.47273 5.26766C1.49205 4.86918 1.64655 4.45173 1.859 3.95838C1.95557 3.7117 2.07144 3.46502 2.18733 3.1804C2.3032 2.87679 2.41908 2.49729 2.41908 2.13676C2.4384 1.77623 2.38046 1.39673 2.26458 1.07415C2.20664 0.903375 2.12939 0.751573 2.03282 0.599772C1.93625 0.447971 1.83969 0.315144 1.68518 0.163343C1.5693 0.0305168 1.37617 -0.0264087 1.20235 0.0115416C0.93196 0.0684672 0.75814 0.33412 0.81608 0.599772L0.854707 0.789524C0.87402 0.846449 0.912647 0.979275 0.951273 1.07415C0.970587 1.188 1.00921 1.28288 1.00921 1.39673C1.02853 1.60546 1.02853 1.81418 0.9899 2.00393C0.951273 2.21266 0.893334 2.38344 0.777454 2.59216L0.410501 3.37015C0.294621 3.6358 0.178741 3.9394 0.101488 4.26198C0.0242349 4.58456 -0.0143916 4.94509 0.00492169 5.30561C0.0628616 6.02667 0.391188 6.67183 0.81608 7.14621C0.9899 7.27903 1.22166 7.35493 1.43411 7.27903Z" transform="translate(12.7591 4)" fill="white"/>
<path d="M1.43411 7.27903C1.70449 7.18416 1.859 6.88055 1.76243 6.6149L1.74312 6.59593C1.5693 6.10257 1.45342 5.66614 1.47273 5.26766C1.49205 4.86919 1.64655 4.45173 1.859 3.95838C1.95557 3.7117 2.07145 3.46502 2.18733 3.1804C2.30321 2.87679 2.41908 2.49729 2.41908 2.13676C2.4384 1.77623 2.38046 1.39673 2.26458 1.07415C2.20664 0.903375 2.12939 0.751573 2.03282 0.599772C1.93625 0.447971 1.83969 0.315144 1.68518 0.163343C1.5693 0.0305169 1.37617 -0.0264087 1.20235 0.0115416C0.93196 0.0684672 0.758141 0.33412 0.816081 0.599772L0.854707 0.789524C0.874021 0.846449 0.912647 0.979275 0.951274 1.07415C0.970587 1.188 1.00921 1.28288 1.00921 1.39673C1.02853 1.60546 1.02853 1.81418 0.9899 2.00393C0.951274 2.21266 0.893334 2.38344 0.777454 2.59216L0.410502 3.37015C0.294622 3.6358 0.178741 3.9394 0.101488 4.26198C0.0242349 4.58456 -0.0143916 4.94509 0.00492169 5.30561C0.0628616 6.02667 0.391188 6.67183 0.816081 7.14621C0.989901 7.27903 1.22166 7.35493 1.43411 7.27903Z" transform="translate(16.3127 4.30359)" fill="white"/>
<path d="M18 2.61857C18 0.0759004 9.92704 0 9 0C8.07296 0 0 0.0759004 0 2.61857C0 3.11193 0.309013 3.51041 0.811159 3.83298C1.19743 6.85004 3.18669 9.14603 9 9.14603C14.8133 9.14603 16.8026 6.85004 17.1888 3.83298C17.691 3.51041 18 3.11193 18 2.61857ZM9 1.44211C13.3262 1.44211 15.8755 2.16317 16.4549 2.61857C15.8755 3.07398 13.3262 3.79503 9 3.79503C4.67382 3.79503 2.12446 3.07398 1.54506 2.61857C2.12446 2.16317 4.67382 1.44211 9 1.44211Z" transform="translate(5 12.854)" fill="white"/>
</svg>
