<svg width="27" height="27" viewBox="0 0 27 27" fill="none" xmlns="http://www.w3.org/2000/svg">
<circle cx="13.5" cy="13.5" r="13.5" fill="#2A6505"/>
<path d="M15.4984 5.532e-06C14.3227 0.00198965 13.278 0.570097 12.8537 1.39434C12.0706 1.26757 11.1378 1.36126 10.3575 1.7996C11.4927 2.75898 11.7461 4.55669 11.5525 5.84522C11.8889 6.34713 12.1099 6.91855 12.1607 7.5143C12.6078 7.75787 13.0556 8.0267 13.4476 8.07064L13.582 5.98944C12.8092 5.73548 12.3092 4.98664 11.8566 4.54703C12.688 5.01329 12.9101 5.25406 13.6245 5.29573C13.7688 4.12041 14.5098 2.56103 15.2085 1.69657C14.947 2.44729 14.6816 3.20198 14.7559 4.32041L16.5661 4.07315L14.7135 5.01416C14.3935 5.55254 14.2967 6.03064 14.2538 6.72443C14.9096 6.55376 15.8974 6.75272 16.7288 7.21902C15.7374 7.02194 14.8085 7.03525 14.2114 7.41819C14.0671 8.59351 14.1389 9.71043 14.6074 11.4089C14.1546 10.6165 13.6981 9.82597 13.4053 8.76443C12.9871 8.52991 12.5407 8.17797 12.1749 7.76848C12.1749 8.24543 11.9636 8.72832 11.6516 9.21089C11.4797 9.47669 11.2611 9.72832 11.0223 9.96645C11.1564 10.048 11.297 10.1269 11.4395 10.2068C11.6437 10.8136 11.9799 11.4247 12.4153 11.9378C12.028 12.7599 11.743 13.5811 11.5526 14.3967C11.026 13.5034 10.4215 12.6702 9.76357 11.9378C10.0102 11.374 10.1384 10.7566 10.1384 10.1725C11.0427 9.529 11.7224 8.43045 11.7224 7.76851C11.7224 7.10654 11.4976 6.45275 11.093 5.92083C11.2713 4.91416 11.2698 3.81648 10.591 2.7132C9.45958 1.16862 7.87557 1.17461 6.51786 1.83402C5.95216 1.39271 5.16014 1.00934 4.28329 0.982288C3.40645 0.955232 2.44474 1.28453 1.53959 2.27359C0.634447 3.59238 1.13653 4.5909 1.58911 5.69417C0.231426 6.35611 -0.0430105 7.54658 0.00510254 9.00487C-0.0430105 10.6237 1.99216 11.718 3.57613 11.718C4.02871 13.0419 6.06525 14.3624 7.64925 13.9229C8.16045 13.781 8.60236 13.4991 8.96454 13.133C9.98816 14.2729 10.8362 15.7366 11.2698 17L12.677 16.7184C12.4455 15.5011 13.0368 13.7352 13.4973 12.8582C13.9626 13.0743 14.4572 13.2574 14.8903 13.2634C16.4743 13.2634 18.0609 11.5037 18.1432 10.042C19.6448 9.52547 21 7.98832 21 6.66953C21 5.35074 20.096 4.25284 18.525 3.83963C18.7383 2.71428 18.5077 1.39358 17.6482 0.673199C16.9522 0.201448 16.2038 -0.00122101 15.4984 5.532e-06ZM4.3044 2.8711C5.20954 3.53051 6.34094 4.84926 6.79351 5.94825C7.47237 5.72844 7.92494 5.50864 8.6038 4.84926C8.15123 5.50868 7.69866 6.16801 7.0198 6.60766L7.69866 8.58583C8.15123 8.41191 8.6038 7.88258 9.05637 7.48684C8.83009 8.14626 8.37751 8.80563 7.92494 9.2452C7.92494 10.3442 7.69866 11.2234 7.47237 12.1026C7.47237 10.3442 7.24608 9.2452 6.79351 8.14625C6.11465 7.92645 5.20951 8.14625 4.3044 8.58586C4.98326 7.92645 5.8884 7.48688 6.56722 7.48688C6.34094 6.82747 6.11465 6.38789 5.66208 5.94832L3.62554 5.50871L5.43583 5.28891C5.20954 4.18992 4.75697 3.53055 4.3044 2.87113V2.8711Z" transform="translate(3 5)" fill="white"/>
</svg>
