<svg width="27" height="27" viewBox="0 0 27 27" fill="none" xmlns="http://www.w3.org/2000/svg">
<circle cx="13.5" cy="13.5" r="13.5" fill="#80C017"/>
<path d="M1.60169 16.2862C1.19021 16.2862 0.781866 16.127 0.471083 15.8162C-0.0847338 15.2604 -0.156838 14.3942 0.29812 13.756L9.38861 0.996967C9.79503 0.426824 10.4282 0.0665705 11.1257 0.00859094C11.8243 -0.0509356 12.5073 0.201094 13.0021 0.695837L15.5903 3.28407C16.0853 3.77921 16.3358 4.46299 16.2776 5.16067C16.2194 5.85837 15.8591 6.4911 15.289 6.89736L2.53013 15.9878C2.24952 16.1881 1.92464 16.2862 1.60169 16.2862ZM11.3238 0.791719C11.2797 0.791719 11.2356 0.793635 11.1914 0.797503C10.7262 0.836145 10.3041 1.0762 10.0333 1.45616L0.942823 14.2152C0.713024 14.5375 0.749547 14.9751 1.02959 15.2554C1.31098 15.5372 1.74835 15.5727 2.0707 15.3431L14.8297 6.25263C15.2097 5.98207 15.4499 5.55997 15.4886 5.09495C15.5274 4.62994 15.3604 4.17384 15.0305 3.84375L12.4423 1.25552C12.1438 0.957149 11.742 0.791719 11.3238 0.791719Z" transform="translate(5 6.71375)" fill="white" stroke="white" stroke-width="0.5"/>
<path d="M4.98353 4.68167C4.89232 4.68167 4.80071 4.65036 4.72609 4.58619C4.64258 4.51584 2.78549 2.9817 0.625174 4.51856C0.457626 4.63721 0.226278 4.609 0.0935037 4.4513C-0.0392709 4.29398 -0.0296181 4.06128 0.115936 3.91597L3.91572 0.115951C4.07032 -0.0386502 4.3208 -0.0386502 4.4754 0.115951C4.63 0.270552 4.63 0.521034 4.4754 0.675635L2.06323 3.08797C3.8722 2.8344 5.22409 3.97041 5.24188 3.98588C5.40751 4.12851 5.42625 4.37859 5.28362 4.54402C5.20539 4.63489 5.09485 4.68167 4.98353 4.68167Z" transform="translate(18.6205 4.78775)" fill="white" stroke="white" stroke-width="0.5"/>
<path d="M0.485166 5.37938C0.394531 5.37938 0.303695 5.34847 0.229673 5.28585C0.0725499 5.15287 0.0433577 4.92213 0.162613 4.75438C1.70102 2.5902 0.160696 0.730958 0.094376 0.652901C-0.0469072 0.486294 -0.0273679 0.236989 0.138264 0.0951338C0.304266 -0.0463511 0.553 -0.0281568 0.695056 0.137273C0.710526 0.155064 1.84597 1.50638 1.59276 3.31613L4.00511 0.903787C4.15971 0.749186 4.41019 0.749186 4.56479 0.903787C4.71939 1.05839 4.71939 1.30887 4.56479 1.46347L0.765009 5.26342C0.688095 5.34033 0.586799 5.37938 0.485166 5.37938Z" transform="translate(18.5311 4)" fill="white" stroke="white" stroke-width="0.5"/>
<path d="M2.51457 2.91017C2.41331 2.91017 2.31201 2.87153 2.23473 2.79421L0.115951 0.675635C-0.0386503 0.521034 -0.0386503 0.270552 0.115951 0.115951C0.270552 -0.0386502 0.521035 -0.0386502 0.675636 0.115951L2.79441 2.23452C2.94901 2.38913 2.94901 2.63961 2.79441 2.79421C2.7171 2.87153 2.61583 2.91017 2.51457 2.91017Z" transform="translate(11.279 11.8061)" fill="white" stroke="white" stroke-width="0.5"/>
<path d="M1.77745 2.17345C1.67619 2.17345 1.57489 2.13481 1.49761 2.05749L0.115951 0.675635C-0.0386503 0.521034 -0.0386503 0.270552 0.115951 0.115951C0.270552 -0.0386502 0.521034 -0.0386502 0.675635 0.115951L2.05729 1.49781C2.21189 1.65241 2.21189 1.90289 2.05729 2.05749C1.97997 2.13481 1.87871 2.17345 1.77745 2.17345Z" transform="translate(9.80508 14.017)" fill="white" stroke="white" stroke-width="0.5"/>
<path d="M1.04053 1.43633C0.939268 1.43633 0.837971 1.39769 0.760688 1.32037L0.115951 0.675635C-0.0386503 0.521034 -0.0386503 0.270552 0.115951 0.115951C0.270552 -0.0386502 0.521034 -0.0386502 0.675635 0.115951L1.32037 0.760687C1.47497 0.915288 1.47497 1.16577 1.32037 1.32037C1.24309 1.39769 1.14183 1.43633 1.04053 1.43633Z" transform="translate(8.33102 16.2279)" fill="white" stroke="white" stroke-width="0.5"/>
</svg>
