<svg width="30" height="23" viewBox="0 0 30 23" fill="none" xmlns="http://www.w3.org/2000/svg">
<path d="M29.9917 10.8421C29.9917 11.3745 29.9576 11.9069 29.9917 12.4393C30.094 14.5356 29.242 16.266 27.8107 17.7966C25.2206 20.5252 21.8809 21.956 18.2344 22.5882C13.6678 23.3868 9.13532 23.0541 4.84135 21.3238C3.54634 20.7914 2.35358 19.9928 1.12673 19.2274C0.445146 18.7949 0.00211777 18.1626 0.070276 17.2642C0.138434 16.4323 0.0361969 15.6005 0.00211778 14.7686C-0.0319613 13.7703 0.342909 13.0383 1.29712 12.639C2.11502 12.2729 3.00108 12.0067 3.81898 11.6407C4.33016 11.4411 4.80727 11.1749 5.2503 10.8754C5.79556 10.5094 5.96596 9.94368 5.82964 9.31145C5.72741 8.8456 5.65925 8.37974 5.52293 7.91389C5.21622 6.61616 5.52293 5.4848 6.37491 4.48655C8.1811 2.25711 10.5666 0.992657 13.327 0.426979C18.3026 -0.571276 22.9714 0.127503 27.1291 3.08899C29.0034 4.42 30.0258 6.34996 29.9917 8.67922C29.9576 9.41127 29.9917 10.1101 29.9917 10.8421ZM12.8159 18.9612C13.5315 18.9612 14.4176 18.7949 15.2696 18.6618C16.9394 18.3623 18.6434 18.1294 20.2451 17.6302C23.4826 16.632 26.1749 14.8684 27.8107 11.8404C29.1057 9.44455 29.0375 6.84909 27.4017 5.15205C26.5497 4.25362 25.5274 3.45502 24.4028 2.92262C21.506 1.45851 18.3708 1.05921 15.1332 1.39196C12.1684 1.69144 9.61242 2.85607 7.56768 4.98568C6.78386 5.81756 6.44307 6.74926 6.74978 7.88062C6.85202 8.24664 6.92017 8.61267 6.98833 8.9787C7.26097 10.4095 6.85202 11.4078 5.59109 12.1398C4.90951 12.5391 4.15977 12.8053 3.44411 13.1381C2.83068 13.4376 2.21726 13.737 1.63791 14.0365C1.26304 14.1363 1.16081 14.4691 1.36528 14.8351C1.5016 15.1679 1.67199 15.5339 1.94463 15.7336C2.76252 16.3325 3.54634 16.9647 4.46648 17.3308C7.02241 18.4621 9.8169 19.0278 12.8159 18.9612Z" fill="white"/>
<path d="M8.249 14.4767C6.06793 14.3436 3.71648 14.1772 1.53541 13.179C1.2287 13.0459 0.92199 12.9128 0.717516 12.6799C0.410804 12.3138 -0.0322245 11.8813 0.00185462 11.482C0.0359337 11.1492 0.615278 10.8164 1.02423 10.6168C1.70581 10.284 2.42147 10.1509 3.10305 9.85147C5.11372 8.95304 5.86346 7.18946 5.11372 5.15967C4.60253 3.76211 4.84109 2.99678 6.13609 2.19818C6.74952 1.83215 7.4311 1.53268 8.0786 1.2332C11.0435 -0.097806 14.1788 -0.330732 17.314 0.434597C18.6431 0.767348 19.9381 1.3663 21.0968 2.09835C23.1756 3.42936 23.755 5.99155 22.6985 8.25426C21.5739 10.6833 19.5633 12.214 17.0414 13.179C14.2469 14.2438 11.3843 14.51 8.249 14.4767ZM17.1436 5.6588C17.4844 5.69207 17.7571 5.82517 18.0297 5.99155C18.4386 6.25775 18.8476 6.55723 19.2225 6.8567C19.5633 7.1229 20.7219 7.22273 20.9605 6.95653C21.1309 6.75688 21.0968 6.65705 21.0627 6.52395C21.0287 6.39085 20.8583 6.15793 20.4493 6.12465C20.0404 6.09137 19.2225 6.09137 18.8476 5.95827C17.6548 5.5257 17.1096 4.66054 17.2118 3.39609C17.2459 3.09661 17.3822 2.76386 17.3822 2.46438C17.3822 2.0318 16.9732 1.8987 16.9051 1.8987C16.6325 1.93198 16.7006 1.93198 16.4961 2.06508C16.3939 2.13163 16.2576 2.63076 16.2917 2.79713C16.3598 3.29626 16.4961 3.76211 16.5302 4.26124C16.5984 4.92674 16.3257 5.42587 15.6782 5.72535C15.2352 5.925 14.7922 6.0581 14.3492 6.29103C14.1788 6.39085 13.9743 6.42413 14.0084 6.79015C14.0084 6.95653 14.281 7.18946 14.4514 7.18946C14.6899 7.22273 14.9626 7.1229 15.1671 6.9898C15.5419 6.7236 15.8146 6.39085 16.1894 6.15793C16.4621 5.89172 16.6325 5.62552 17.1436 5.6588Z" transform="translate(3.7149 2.8541)" fill="white"/>
</svg>
