<svg width="35" height="31" viewBox="0 0 35 31" fill="none" xmlns="http://www.w3.org/2000/svg">
<path d="M35 10.8382C35 9.01824 32.5612 7.45886 28.1325 6.44703C28.0737 6.43319 28.0154 6.4318 27.9582 6.43618C26.7147 4.60719 24.7942 3.18094 22.1108 3.03042C22.0371 2.88721 21.9578 2.74742 21.867 2.61544C21.1679 1.59903 20.0604 1.0704 18.5818 1.03233C17.872 0.444303 16.8491 0 15.371 0C13.0386 0 11.9869 1.66966 11.6746 2.29499C10.007 3.03747 8.50991 4.46296 7.38183 6.33421C4.54589 6.93448 0 8.29347 0 10.8382C0 12.3331 1.60624 13.5366 4.09583 14.4301C4.46228 15.3648 6.69593 19.4415 17.7646 19.4415C28.6913 19.4415 30.6073 15.4578 30.9207 14.4242C33.4009 13.5313 35 12.3298 35 10.8382ZM12.7199 3.13481C13.7638 2.79818 14.7404 2.8492 15.5354 3.25994C13.5851 3.64783 10.0747 5.08087 8.72742 10.3482C8.64781 10.66 8.83544 10.9774 9.14709 11.057C9.19561 11.0695 9.24414 11.0752 9.2919 11.0752C9.5516 11.0752 9.78814 10.9004 9.85563 10.6372C11.3121 4.94273 15.4254 4.34188 16.5564 4.28547C16.7418 4.73251 16.7636 5.26006 16.677 5.81991C15.4526 5.75716 13.0042 6.23979 11.67 10.6812C11.5776 10.9892 11.7519 11.3142 12.0602 11.4067C12.1159 11.4234 12.1724 11.4313 12.2281 11.4313C12.4784 11.4313 12.7096 11.2686 12.7854 11.0165C13.7945 7.65703 15.377 7.01151 16.3763 6.97737C15.7078 8.87908 14.3173 10.7468 14.2932 10.7783C14.0979 11.0335 14.1465 11.3991 14.402 11.5948C14.5073 11.6756 14.6321 11.7146 14.7553 11.7146C14.9304 11.7146 15.1033 11.6361 15.2181 11.4863C15.4134 11.2307 19.9714 5.19864 16.7308 2.64297C15.8489 1.94752 14.7561 1.6505 13.5725 1.76865C13.9945 1.43767 14.5794 1.16507 15.3709 1.16507C16.9423 1.16507 18.0432 1.7656 18.6426 2.95015C19.6575 4.95517 19.0395 8.35197 17.2054 10.8508C17.0151 11.1102 17.0708 11.4746 17.3301 11.665C17.434 11.7412 17.5546 11.778 17.6744 11.778C17.8533 11.778 18.03 11.6957 18.1441 11.5403C20.2539 8.66607 20.9006 4.832 19.6818 2.42381C19.6717 2.40394 19.6598 2.38358 19.6493 2.36352C20.1875 2.53574 20.605 2.83638 20.907 3.27516C22.2328 5.20054 21.0871 9.38766 20.5336 10.8387C20.4191 11.139 20.5696 11.4758 20.8699 11.5907C20.9381 11.6165 21.0086 11.629 21.0776 11.629C21.3119 11.629 21.5329 11.4865 21.6216 11.2547C21.6618 11.1495 22.1004 9.98197 22.4028 8.47114C22.8692 8.78333 23.5175 9.4586 23.7924 10.8812C23.8462 11.1599 24.09 11.3533 24.3633 11.3533C24.4001 11.3533 24.4372 11.3499 24.4744 11.3427C24.7902 11.2817 24.9968 10.976 24.9357 10.6605C24.5078 8.44512 23.2859 7.57625 22.5994 7.25435C22.6353 6.95586 22.661 6.65211 22.6755 6.34728C23.4647 6.41879 25.3121 6.97033 26.0621 10.453C26.1212 10.726 26.3623 10.9126 26.6308 10.9126C26.6717 10.9126 26.7131 10.9085 26.7544 10.8998C27.0687 10.8319 27.2684 10.522 27.2009 10.2073C26.2782 5.92588 23.7633 5.26755 22.6649 5.18944C22.6411 4.86417 22.5971 4.54487 22.5308 4.23566C24.1164 4.45889 27.1566 5.49218 28.3098 10.0454C28.3766 10.3093 28.6139 10.4849 28.8739 10.4849C28.9213 10.4849 28.9695 10.4792 29.0172 10.4671C29.3293 10.3882 29.5177 10.0711 29.4388 9.75944C29.4278 9.71585 29.4132 9.67187 29.4016 9.62815C30.3047 9.97848 30.4369 10.2422 30.445 10.2422C30.2296 10.9487 25.7038 12.2658 17.8116 12.2658C9.91627 12.2658 5.39011 10.9479 5.1778 10.2665C5.17863 10.2637 5.26236 10.0582 5.89268 9.76737C5.88831 9.78234 5.88311 9.79681 5.87879 9.81179C5.79043 10.1209 5.96899 10.4436 6.27835 10.5323C6.58657 10.6203 6.90957 10.4417 6.99863 10.1326C8.19744 5.94758 10.7401 3.77366 12.7199 3.13481ZM17.7646 18.2765C10.0443 18.2765 6.98531 16.2432 5.82507 14.9652C9.10732 15.8416 13.3655 16.2973 17.5 16.2973C21.7047 16.2973 26.0388 15.8267 29.3426 14.9209C28.3872 16.1725 25.6143 18.2765 17.7646 18.2765ZM17.5 15.1323C7.8733 15.1323 1.16462 12.8694 1.16462 10.8382C1.16462 9.97645 2.63536 8.68111 6.66136 7.69478C6.56507 7.90469 6.47347 8.11903 6.386 8.33674C5.35275 8.66416 4.01477 9.2171 4.01477 10.2539C4.01477 12.7618 12.6873 13.4307 17.8116 13.4307C22.936 13.4307 31.6085 12.7618 31.6085 10.2539C31.6085 9.17116 30.1433 8.60649 29.0412 8.27614C29.0059 8.26561 28.9704 8.25952 28.935 8.25578C28.8708 8.10063 28.8033 7.94657 28.7311 7.79332C32.4768 8.77381 33.8354 10.0244 33.8354 10.8383C33.8354 12.8694 27.1267 15.1323 17.5 15.1323Z" transform="translate(0 11.5585)" fill="white"/>
<path d="M0.844252 7.81889C0.640316 8.06769 0.676662 8.43477 0.925381 8.63858C1.03379 8.72736 1.16459 8.77057 1.29424 8.77057C1.46297 8.77057 1.62974 8.69772 1.74499 8.55724C2.40272 7.75442 3.25005 5.74046 1.74918 3.8642C0.521634 2.32944 1.58502 1.12249 1.71353 0.986951C1.93605 0.756551 1.93079 0.389471 1.70141 0.165543C1.47128 -0.0587663 1.10318 -0.0547687 0.877998 0.175378C0.199017 0.870894 -0.682441 2.68897 0.840064 4.59195C2.11994 6.19238 0.895061 7.75537 0.844252 7.81889Z" transform="translate(16.2035)" fill="white"/>
<path d="M0.569524 4.86703C0.365589 5.11602 0.401936 5.48291 0.651035 5.68672C0.759061 5.7755 0.889859 5.81871 1.01951 5.81871C1.18825 5.81871 1.35539 5.74593 1.47027 5.60538C1.91271 5.06513 2.48284 3.71033 1.47445 2.44938C0.862202 1.68368 1.33718 1.09705 1.44071 0.98512C1.66132 0.754529 1.6553 0.388972 1.42669 0.165615C1.19655 -0.0588841 0.828076 -0.0546963 0.603271 0.17545C0.139643 0.650465 -0.465059 1.88921 0.565338 3.17707C1.22009 3.99613 0.635114 4.78384 0.569524 4.86703Z" transform="translate(10.6349 3.86807)" fill="white"/>
<path d="M0.569526 4.86703C0.36559 5.11583 0.401937 5.48291 0.650655 5.68672C0.759061 5.7755 0.889859 5.81871 1.01952 5.81871C1.18786 5.81871 1.35501 5.74593 1.47027 5.60538C1.91309 5.06513 2.48322 3.71033 1.47445 2.44938C0.862202 1.68368 1.33718 1.09705 1.44071 0.98512C1.66132 0.754529 1.6553 0.388972 1.42669 0.165615C1.19656 -0.0588841 0.828075 -0.0546963 0.603271 0.17545C0.139643 0.650465 -0.465058 1.88921 0.565338 3.17726C1.22047 3.99613 0.635495 4.78365 0.569526 4.86703Z" transform="translate(22.928 3.86807)" fill="white"/>
</svg>
