<svg width="25" height="26" viewBox="0 0 25 26" fill="none" xmlns="http://www.w3.org/2000/svg">
<path fill-rule="evenodd" clip-rule="evenodd" d="M25 12.7551C25 19.8 19.404 25.5102 12.5 25.5102C5.596 25.5102 0 19.8 0 12.7551C0 5.7102 5.596 0 12.5 0C19.404 0 25 5.7102 25 12.7551Z" fill="#979797"/>
<path fill-rule="evenodd" clip-rule="evenodd" d="M13.885 18.0459C13.873 17.9541 13.846 17.8724 13.783 17.8194C12.866 17.0449 11.059 17.4173 10.389 16.8122C9.445 15.9571 9.727 13.5469 9.727 13.5469C9.727 13.5469 10.357 13.0296 10.408 12.4622C10.449 12.0133 10.666 10.549 10.666 10.549C10.666 10.549 11.024 10.2867 11.221 10.0388C11.481 9.71224 11.346 9.14592 11.408 8.82755C11.471 8.50816 12.096 7.87041 11.846 7.3602C11.596 6.85 11.354 6.91429 11.354 6.91429C11.354 6.91429 11.888 4.80714 11.658 3.34286C11.557 2.7 11.065 1.54898 10.213 0.911224C9.535 0.403061 8.658 0 7.158 0H6.76C5.26 0 4.384 0.403061 3.705 0.911224C2.853 1.54898 2.361 2.7 2.26 3.34286C2.03 4.80714 2.564 6.91429 2.564 6.91429C2.564 6.91429 2.322 6.85 2.072 7.3602C1.822 7.87041 2.447 8.50816 2.51 8.82755C2.572 9.14592 2.437 9.71224 2.697 10.0388C2.894 10.2867 3.252 10.549 3.252 10.549C3.252 10.549 3.469 12.0133 3.51 12.4622C3.561 13.0296 4.191 13.5469 4.191 13.5469C4.191 13.5469 4.473 15.9571 3.529 16.8122C2.86 17.4173 1.052 17.0449 0.135 17.8194C0.067 17.8765 0.028 17.9643 0 18.0653C1.93 19.5592 4.326 20.4571 6.93 20.4571C9.545 20.4571 11.951 19.552 13.885 18.0459Z" transform="translate(5.55737 4.03265)" fill="#FAFAFA"/>
</svg>
