<svg width="29" height="20" viewBox="0 0 29 20" fill="none" xmlns="http://www.w3.org/2000/svg">
<path d="M21.0236 7.56448C20.6371 7.93715 20.6362 8.53854 21.0247 8.91038C21.4136 9.28107 22.0426 9.28107 22.4308 8.90955C22.8185 8.53886 22.8194 7.93605 22.4308 7.56398C22.0432 7.19269 21.4127 7.19269 21.0236 7.56448ZM26.9453 8.86074C25.3289 6.05897 22.9557 3.9994 20.2125 2.90149C18.4687 1.08507 16.3867 0.109859 14.0194 0.00942057C11.1931 -0.118905 8.52495 1.08507 7.1327 2.32232C7.02558 2.41737 6.97458 2.55786 6.99699 2.69637C7.0197 2.83461 7.11235 2.95335 7.24453 3.01373C7.25307 3.01769 8.05701 3.40216 7.81332 4.68823C6.97839 5.33561 6.20602 6.0922 5.51243 6.94895C4.49725 5.06652 2.34179 4.20867 0.485797 4.2053C0.485508 4.2053 0.485508 4.2053 0.48493 4.2053C0.263662 4.2053 0.0766212 4.36216 0.0474081 4.57202C0.0300055 4.69615 -0.329904 7.4398 1.24283 9.06549C-0.329952 10.6912 0.0300055 13.4349 0.0474081 13.5589C0.0766212 13.7685 0.263662 13.9257 0.48493 13.9257C0.485508 13.9257 0.485508 13.9257 0.485797 13.9257C2.34208 13.9223 4.49783 13.0639 5.51301 11.1812C6.67541 12.6168 8.05908 13.7683 9.58669 14.5993C8.89753 15.7077 8.87449 16.8524 9.56572 17.512C9.90206 17.8338 10.3605 18 10.8913 18C11.088 18 11.2948 17.9774 11.509 17.9312C12.2283 17.7755 12.962 17.367 13.5742 16.7819C13.8102 16.5562 14.0155 16.3102 14.194 16.0535C14.6475 16.1037 15.1059 16.1334 15.5677 16.1334H15.5694C20.2137 16.1323 24.4665 13.5663 26.9455 9.26917C27.0182 9.14196 27.0182 8.98768 26.9453 8.86074ZM4.98905 10.2046C4.36979 12.036 2.55217 12.9356 0.892081 13.0642C0.854336 12.2554 0.914208 10.3674 2.16512 9.39243C2.26838 9.31204 2.32767 9.19215 2.32767 9.06521C2.32767 8.93799 2.26838 8.8181 2.16512 8.73771C0.918643 7.76647 0.856698 5.87588 0.89266 5.06597C2.55217 5.19517 4.3695 6.09478 4.98876 7.92554C5.06811 8.16025 5.11328 8.58537 5.11 9.06774C5.11357 9.54482 5.06845 9.96994 4.98905 10.2046ZM13.9808 0.853169C15.5076 0.918069 16.9042 1.39874 18.158 2.27042C17.3146 2.09185 16.4475 1.99874 15.5668 1.99874C13.1211 1.99874 10.7774 2.71808 8.73647 4.03913C8.69251 3.35648 8.40457 2.89974 8.12903 2.62188C9.43918 1.65234 11.6699 0.756141 13.9808 0.853169ZM12.95 16.1845C12.4537 16.6584 11.8728 16.9862 11.3147 17.1069C11.0335 17.1684 10.5128 17.2231 10.1897 16.9148C9.79938 16.5415 9.88229 15.7539 10.3661 14.9923C11.2757 15.4095 12.2289 15.7164 13.2116 15.9054C13.1288 16.0008 13.0435 16.095 12.95 16.1845ZM15.5695 15.2885L15.5677 15.7106V15.2885C11.8062 15.2885 8.28888 13.4549 5.88858 10.2514L5.88829 10.2486C5.98181 9.83788 5.9957 9.34703 5.99334 9.06807C5.99541 8.78399 5.98152 8.2912 5.88772 7.88018L5.888 7.87765C8.28859 4.67527 11.8047 2.84309 15.5695 2.84309C19.814 2.84309 23.716 5.16415 26.0514 9.0647C23.7157 12.9652 19.8137 15.2877 15.5695 15.2885ZM16.6118 5.69588C16.4395 5.53115 16.1601 5.53115 15.9878 5.69588C14.0451 7.55319 14.0448 10.5744 15.9873 12.432C15.9875 12.4323 15.9875 12.4328 15.9878 12.4331C16.1601 12.5982 16.4395 12.5979 16.6118 12.4331C16.7844 12.2681 16.7847 12.001 16.6121 11.8362C15.014 10.3079 15.014 7.82118 16.6121 6.29308C16.7847 6.12806 16.7844 5.86095 16.6118 5.69588ZM13.5495 6.89142C13.7217 6.72641 13.7215 6.45897 13.5489 6.29423C13.3766 6.12949 13.0972 6.12949 12.9249 6.29423C11.327 7.82206 11.327 10.3079 12.9249 11.8354C13.0972 12.0001 13.3766 12.0001 13.5489 11.8354C13.7215 11.6704 13.7217 11.4032 13.5495 11.2385C12.2962 10.0399 12.2962 8.08977 13.5495 6.89142ZM10.4824 6.91032C10.3101 6.74558 10.0307 6.74558 9.85843 6.91032C8.6161 8.09821 8.6161 10.0314 9.85843 11.219C10.0307 11.3841 10.3101 11.3838 10.4824 11.219C10.655 11.054 10.6553 10.7869 10.4827 10.6221C10.4827 10.6221 10.4827 10.6221 10.4824 10.6218C9.58467 9.76256 9.58496 8.3662 10.4827 7.50724C10.6553 7.3425 10.655 7.07506 10.4824 6.91032Z" transform="translate(1 1)" fill="white" stroke="white" stroke-width="0.75"/>
</svg>
