<svg width="25" height="25" viewBox="0 0 25 25" fill="none" xmlns="http://www.w3.org/2000/svg">
<path d="M2.94786 15.5008L4.06963 22.7564C4.09124 22.8965 4.21197 23 4.35375 23H18.6462C18.788 23 18.9084 22.8968 18.9303 22.7568L20.064 15.4978C21.7518 15.0457 23 13.5073 23 11.679C23 9.89193 21.8295 8.35728 20.1284 7.87562C19.7266 3.44258 15.9764 0 11.5 0C7.02355 0 3.27341 3.44258 2.87162 7.87567C1.17048 8.35728 0 9.89193 0 11.679C0 13.5116 1.25415 15.0529 2.94786 15.5008ZM18.4003 22.425H4.60028L3.54734 15.6148C3.68207 15.6288 3.81868 15.6362 3.95702 15.6362C4.87933 15.6362 5.76259 15.3164 6.47152 14.7305C7.18045 15.3164 8.06344 15.6362 8.98574 15.6362C9.90804 15.6362 10.791 15.3164 11.5 14.7305C12.2089 15.3164 13.0919 15.6362 14.0142 15.6362C14.9365 15.6362 15.8195 15.3164 16.5284 14.7305C17.2373 15.3164 18.1206 15.6362 19.0429 15.6362C19.1852 15.6362 19.3254 15.6278 19.4638 15.6131L18.4003 22.425ZM11.5 0.575C15.6497 0.575 19.1292 3.74422 19.5454 7.84058C18.6115 7.95689 18.0801 8.49915 17.6071 8.98607C17.0877 9.52062 16.6391 9.98222 15.7081 9.98222C14.7771 9.98222 14.3284 9.52067 13.809 8.98607C13.2761 8.43747 12.6719 7.81558 11.4978 7.81558C10.3242 7.81558 9.72055 8.43747 9.18769 8.98607C8.66883 9.52062 8.22048 9.98222 7.29029 9.98222C6.35958 9.98222 5.91146 9.52067 5.39232 8.98607C4.91935 8.4992 4.38804 7.95694 3.45456 7.84058C3.87077 3.74426 7.35032 0.575 11.5 0.575ZM3.16175 8.39566C4.0359 8.42267 4.47636 8.86848 4.97962 9.38669C5.51253 9.93529 6.1167 10.5572 7.29029 10.5572C8.46387 10.5572 9.06752 9.93529 9.60039 9.38669C10.1192 8.85213 10.5676 8.39054 11.4978 8.39054C12.4288 8.39054 12.8775 8.85209 13.3968 9.38669C13.9298 9.93529 14.5339 10.5572 15.7081 10.5572C16.8822 10.5572 17.4864 9.93529 18.0193 9.38669C18.5228 8.86843 18.9638 8.42267 19.8383 8.39566C21.3633 8.7633 22.425 10.106 22.425 11.679C22.425 13.5439 20.9078 15.0612 19.043 15.0612C18.1802 15.0612 17.3573 14.7332 16.7255 14.1379C16.6703 14.0857 16.5995 14.0596 16.5284 14.0596C16.4574 14.0596 16.3867 14.0857 16.3313 14.1379C15.6996 14.7332 14.8767 15.0612 14.0142 15.0612C13.1517 15.0612 12.3288 14.7332 11.697 14.1379C11.5864 14.0335 11.4135 14.0335 11.3028 14.1379C10.6711 14.7332 9.84819 15.0612 8.98569 15.0612C8.12319 15.0612 7.30029 14.7332 6.66854 14.1379C6.55791 14.0335 6.38499 14.0335 6.27436 14.1379C5.64266 14.7332 4.81971 15.0612 3.95693 15.0612C2.09213 15.0612 0.574859 13.544 0.574859 11.679C0.575 10.106 1.63673 8.76335 3.16175 8.39566Z" transform="translate(1 1)" fill="white" stroke="white" stroke-width="0.75"/>
<path d="M0.2875 0C0.128576 0 0 0.128717 0 0.2875V2.98281C0 3.1416 0.128576 3.27031 0.2875 3.27031C0.446423 3.27031 0.575 3.1416 0.575 2.98281V0.2875C0.575 0.128717 0.446423 0 0.2875 0Z" transform="translate(7.32501 18.1422)" fill="white" stroke="white" stroke-width="0.75"/>
<path d="M0.2875 0C0.128576 0 0 0.128717 0 0.2875V2.98281C0 3.1416 0.128576 3.27031 0.2875 3.27031C0.446423 3.27031 0.575 3.1416 0.575 2.98281V0.2875C0.575046 0.128717 0.446423 0 0.2875 0Z" transform="translate(9.78668 18.1422)" fill="white" stroke="white" stroke-width="0.75"/>
<path d="M0.2875 0C0.128576 0 0 0.128717 0 0.2875V2.98281C0 3.1416 0.128576 3.27031 0.2875 3.27031C0.446423 3.27031 0.575 3.1416 0.575 2.98281V0.2875C0.575 0.128717 0.446423 0 0.2875 0Z" transform="translate(12.2485 18.1422)" fill="white" stroke="white" stroke-width="0.75"/>
<path d="M0.287501 0C0.128578 0 0 0.128717 0 0.2875V2.98281C0 3.1416 0.128578 3.27031 0.287501 3.27031C0.446425 3.27031 0.575001 3.1416 0.575001 2.98281V0.2875C0.575001 0.128717 0.446425 0 0.287501 0Z" transform="translate(14.7101 18.1422)" fill="white" stroke="white" stroke-width="0.75"/>
<path d="M0.2875 0C0.128576 0 0 0.128717 0 0.2875V2.98281C0 3.1416 0.128576 3.27031 0.2875 3.27031C0.446423 3.27031 0.575 3.1416 0.575 2.98281V0.2875C0.575 0.128717 0.446423 0 0.2875 0Z" transform="translate(17.1719 18.1422)" fill="white" stroke="white" stroke-width="0.75"/>
</svg>
