<svg width="19" height="23" viewBox="0 0 19 23" fill="none" xmlns="http://www.w3.org/2000/svg">
<path d="M14.0717 0.0272835C14.1253 -0.0501611 14.2682 0.054058 14.215 0.131215L10.8981 5.06348C10.7187 5.32518 11.0537 5.56644 11.2333 5.30388L14.8865 0.614883C14.9401 0.535136 15.0838 0.639643 15.03 0.717951L11.8329 5.73601C11.7426 5.86845 11.7835 5.9957 11.8707 6.05731C11.9593 6.12324 12.0902 6.11921 12.1796 5.9862L15.6803 1.1855C15.7338 1.10805 15.8779 1.21256 15.8243 1.29L12.7813 6.41747C12.6017 6.68032 12.9355 6.921 13.1154 6.65844L16.4942 1.77281C16.5486 1.69364 16.6935 1.79843 16.64 1.87588C16.64 1.87588 14.19 6.35183 13.7755 7.12742C13.2724 8.06971 12.7183 8.95327 11.7967 9.50748C11.288 9.80977 10.7056 9.9566 10.0612 9.85929C8.14745 12.7348 2.95945 20.5924 1.60681 22.7401C1.43388 23.0154 1.07428 23.0813 0.813059 22.893L0.242407 22.481C-0.0179741 22.2942 -0.0793556 21.9237 0.110955 21.6648C1.61606 19.6257 7.03417 11.9336 9.01324 9.105C8.70269 8.51452 8.63794 7.9036 8.74193 7.30995C8.93224 6.22976 9.5539 5.3937 10.2445 4.58557C10.8112 3.9211 14.0717 0.0272835 14.0717 0.0272835Z" transform="translate(2.34839)" fill="#8A8A8F"/>
<path d="M1.03101 0.277913C0.726064 -0.157101 -0.0483526 -0.15998 0.00237827 0.842481C0.0814175 2.32228 1.27962 5.79462 2.70569 8.07419C3.83914 9.88766 5.34818 11.2526 6.71567 10.813C8.98566 14.1506 13.679 20.9003 14.718 22.5042C14.885 22.7642 15.227 22.8209 15.4705 22.6407L16.007 22.2442C16.2514 22.0637 16.3069 21.7134 16.1205 21.4675C14.9683 19.946 10.1155 13.301 7.7485 10.0351C6.85469 8.80142 1.26336 0.609572 1.03101 0.277913Z" transform="translate(0 0.126801)" fill="#8A8A8F"/>
</svg>
