<svg width="24" height="24" viewBox="0 0 24 24" fill="none" xmlns="http://www.w3.org/2000/svg">
<path d="M4.00659 1.53838C3.9223 1.14253 3.54907 0.88551 3.15573 0.929691C3.2895 0.770961 3.37294 0.548314 3.33305 0.252287C3.31145 0.0930048 3.16647 -0.0187003 3.00579 0.00260519C2.84642 0.0241229 2.7348 0.170588 2.75619 0.329998C2.77945 0.5032 2.70653 0.587955 2.61702 0.628656C2.4372 0.529471 2.23085 0.472726 2.01139 0.472726C1.79188 0.472726 1.58553 0.529514 1.40567 0.628699C1.3162 0.58804 1.24337 0.503158 1.26659 0.329998C1.28802 0.170631 1.1764 0.0241229 1.01699 0.00260519C0.855924 -0.0186154 0.711115 0.0930048 0.689725 0.252287C0.64983 0.548144 0.733142 0.770664 0.866747 0.929394C0.687433 0.908938 0.507992 0.94688 0.354652 1.0464C0.179751 1.15981 0.0596 1.33454 0.0161827 1.53838C0.0161827 1.53838 0.0161827 1.53838 0.0161827 1.53847C-0.00240658 1.62543 -0.00503798 1.71719 0.00858566 1.8109C0.0207238 1.89531 0.0692344 1.97018 0.141427 2.01576C0.221386 2.06618 0.306098 2.10124 0.393273 2.11979C0.447852 2.13133 0.502814 2.13714 0.557393 2.13714C0.635612 2.13714 0.712856 2.12458 0.787298 2.10132C0.839458 2.45681 0.949507 2.92901 1.10187 3.34286C1.14393 3.45732 1.25292 3.53342 1.37494 3.53342H2.6475C2.76956 3.53342 2.8785 3.45732 2.92056 3.34286C3.07301 2.9288 3.1831 2.45668 3.23531 2.10128C3.30975 2.12454 3.38699 2.1371 3.46521 2.1371C3.51979 2.1371 3.57475 2.13133 3.62933 2.11974C3.71595 2.10128 3.80045 2.06631 3.8808 2.01597C3.9532 1.97048 4.00188 1.89544 4.01402 1.81081C4.02764 1.7171 4.02501 1.62539 4.00642 1.53838C4.00659 1.53838 4.00659 1.53838 4.00659 1.53838ZM2.44013 2.95125H1.5826C1.42264 2.45448 1.3353 1.93389 1.3353 1.73102C1.3353 1.35818 1.63871 1.05485 2.01147 1.05485C2.38423 1.05485 2.68765 1.35818 2.68765 1.73102C2.6876 1.93368 2.60005 2.45418 2.44013 2.95125Z" transform="translate(8.36487 12.6408)" fill="white"/>
<path d="M12 0C5.37662 0 0 5.37662 0 12C0 18.6234 5.37662 24 12 24C18.6234 24 24 18.6234 24 12C24 5.37662 18.6234 0 12 0ZM12 22.2597C9.48052 22.2597 7.16883 21.3507 5.4026 19.8442L7.35006 17.8967C6.85655 17.4811 7.33613 16.2543 7.07639 15.7348L4.18182 18.5974C2.64935 16.8312 1.74026 14.5195 1.74026 12C1.74026 6.33766 6.33766 1.74026 12 1.74026C14.5195 1.74026 16.8312 2.64935 18.5974 4.15584L16.138 6.69485C16.3718 7.31822 17.1028 7.70291 16.8171 8.45616L19.8442 5.37662C21.3507 7.16883 22.2597 9.48052 22.2597 11.974C22.2597 17.6623 17.6623 22.2597 12 22.2597Z" fill="white"/>
<path d="M0.291105 17.8532H5.58802H6.30872H9.94686C10.1075 17.8532 10.238 17.7229 10.238 17.5621V5.5306C10.238 5.52742 10.2371 5.52445 10.237 5.52131C10.2367 5.51087 10.2353 5.50076 10.2339 5.49062C10.2327 5.48141 10.2315 5.4722 10.2293 5.46308C10.2272 5.45438 10.2243 5.44606 10.2214 5.4377C10.218 5.42768 10.2145 5.41766 10.21 5.40786C10.2087 5.40506 10.2081 5.40217 10.2067 5.39941L8.47347 1.9683V0.291104C8.47347 0.130295 8.3431 0 8.18241 0H2.20266C2.04197 0 1.91155 0.130295 1.91155 0.291104V1.89542C1.91058 1.89712 1.90909 1.89835 1.90816 1.90014L0.0356511 5.39313C0.0352691 5.3939 0.0351838 5.3947 0.0347594 5.39547C0.0133266 5.43604 0 5.48154 0 5.53064V17.5621C0 17.7229 0.13038 17.8532 0.291105 17.8532ZM5.58802 17.271H0.582167V5.82171H5.58802H6.01766V17.271H5.58802ZM9.6558 17.271H6.59982V5.82171H9.6558V17.271ZM9.47373 5.23954H6.7962L8.17473 2.66803L9.47373 5.23954ZM2.49376 0.582166H7.89131V1.7465H2.49376V0.582166ZM2.33894 2.32866H7.69612L6.13573 5.2395H5.58807H0.778499L2.33894 2.32866Z" transform="translate(7.07642 2.86122)" fill="white"/>
</svg>
