<svg width="24" height="24" viewBox="0 0 24 24" fill="none" xmlns="http://www.w3.org/2000/svg">
<path d="M12 0C5.37662 0 0 5.37662 0 12C0 18.6234 5.37662 24 12 24C18.6234 24 24 18.6234 24 12C24 5.37662 18.6234 0 12 0ZM12 22.2597C9.48052 22.2597 7.16883 21.3507 5.4026 19.8442L7.76623 17.4805C7.27273 17.0649 6.90909 16.6494 6.64935 16.1299L4.18182 18.5974C2.64935 16.8312 1.74026 14.5195 1.74026 12C1.74026 6.33766 6.33766 1.74026 12 1.74026C14.5195 1.74026 16.8312 2.64935 18.5974 4.15584L17.1688 5.58442C17.4026 6.20779 17.4805 7.27273 17.1948 8.02597L19.8442 5.37662C21.3507 7.16883 22.2597 9.48052 22.2597 11.974C22.2597 17.6623 17.6623 22.2597 12 22.2597Z" fill="white"/>
<path d="M0.675324 0C0.311688 0 0 0.311688 0 0.675325V12.3636C0 12.7273 0.311688 13.039 0.675324 13.039C1.03896 13.039 1.35065 12.7273 1.35065 12.3636V0.675325C1.35065 0.311688 1.03896 0 0.675324 0Z" transform="translate(11.3246 8.20779)" fill="white"/>
<path d="M1.16883 0C1.87013 0.545455 2.33766 1.4026 2.33766 2.36364C2.33766 3.32468 1.87013 4.18182 1.16883 4.72727C0.467532 4.18182 0 3.32468 0 2.36364C0 1.4026 0.467532 0.545455 1.16883 0Z" transform="translate(10.8312 2.88312)" fill="white"/>
<path d="M3.04781 0C3.2556 0.857143 3.09976 1.81818 2.47638 2.57143C1.87898 3.32468 0.969885 3.71429 0.0867677 3.68831C-0.121025 2.83117 0.0348205 1.87013 0.658197 1.11688C1.2556 0.38961 2.13872 0 3.04781 0Z" transform="translate(13.4457 6.15585)" fill="white"/>
<path d="M3.29058 0.0194805C3.44643 0.902598 3.18669 1.83766 2.51136 2.53896C1.86201 3.24026 0.926948 3.55195 0.0438311 3.47403C-0.112013 2.59091 0.147728 1.65584 0.823053 0.954545C1.4724 0.227273 2.40747 -0.0844156 3.29058 0.0194805Z" transform="translate(13.4886 10.1364)" fill="white"/>
<path d="M3.29058 0.0116883C3.44643 0.894805 3.18669 1.82987 2.51136 2.53117C1.86201 3.23247 0.926948 3.54416 0.0438311 3.46623C-0.112013 2.58312 0.147728 1.64805 0.823053 0.946753C1.4724 0.245454 2.40747 -0.0662337 3.29058 0.0116883Z" transform="translate(13.6445 13.9883)" fill="white"/>
<path d="M2.47224 1.1181C3.06964 1.87135 3.25146 2.83239 3.04367 3.68953C2.16055 3.7155 1.25146 3.32589 0.65406 2.57265C0.0566569 1.8194 -0.125161 0.858362 0.0826308 0.00121912C0.991722 -0.0247549 1.87484 0.364855 2.47224 1.1181Z" transform="translate(7.42383 6.1806)" fill="white"/>
<path d="M2.5 0.946754C3.14935 1.64805 3.40909 2.58312 3.27922 3.46623C2.3961 3.54416 1.46104 3.23247 0.811688 2.53117C0.162338 1.82987 -0.0974026 0.894805 0.0324675 0.0116883C0.915585 -0.0662338 1.85065 0.245455 2.5 0.946754Z" transform="translate(7.18835 10.1182)" fill="white"/>
<path d="M2.5 0.946753C3.14935 1.64805 3.40909 2.58312 3.27922 3.46623C2.3961 3.54416 1.46104 3.23247 0.811688 2.53117C0.162338 1.82987 -0.0974026 0.894805 0.0324675 0.0116883C0.915585 -0.0662337 1.85065 0.245454 2.5 0.946753Z" transform="translate(7.03247 13.9883)" fill="white"/>
</svg>
