<svg width="25" height="25" viewBox="0 0 25 25" fill="none" xmlns="http://www.w3.org/2000/svg">
<path d="M20.9587 1.60414H13.6724C13.5644 0.998606 13.3472 0.465085 13.0344 0.00322721C13.0233 0.211852 12.9657 0.416366 12.8631 0.599836C12.6829 2.14474 9.67562 2.85037 6.8753 2.85037C4.04739 2.85037 1.00789 2.13068 0.883396 0.553283C0.788699 0.382546 0.734321 0.193417 0.719158 0C0.259731 0.676672 0 1.50326 0 2.4924C0 5.9072 3.07845 8.67529 6.87552 8.67529C9.70401 8.67529 12.1328 7.13905 13.1883 4.94422H20.3397L20.5166 1.60414H20.9587Z" transform="translate(3.81665 10.2226)" fill="white"/>
<path d="M11.0488 5.11832C11.0488 4.71168 10.7188 4.38157 10.3121 4.38157C10.3121 3.97493 9.982 3.64482 9.57531 3.64482C9.57531 3.23818 9.24551 2.90833 8.83856 2.90833C8.83587 2.90833 8.8337 2.90912 8.83127 2.90912C8.79311 2.5379 8.48334 2.24762 8.10238 2.24762C8.10212 1.84098 7.77231 1.51113 7.3659 1.51113C7.36563 1.10449 7.03583 0.77464 6.62914 0.77464C6.62914 0.367735 6.29934 0.0378874 5.89239 0.0378874C5.77201 0.0378874 5.65971 0.0695416 5.55931 0.121223C5.44326 0.0449168 5.30524 0 5.15617 0C4.74953 0 4.41968 0.329804 4.41968 0.736753C4.01277 0.736753 3.68292 1.06629 3.68292 1.47324C3.27628 1.47324 2.94644 1.80304 2.94617 2.20973C2.56522 2.20973 2.25544 2.50032 2.21755 2.87124C2.21486 2.87124 2.21216 2.87044 2.20999 2.87044C1.80335 2.87044 1.47351 3.20024 1.47351 3.60693C1.0666 3.60693 0.736753 3.93673 0.736753 4.34342C0.329848 4.34342 0 4.67322 0 5.08017C0 5.25984 0.0671103 5.42244 0.17423 5.55012C0.169632 5.57907 0.167466 5.60803 0.167466 5.63752C0.167466 6.60858 2.56575 7.39618 5.52408 7.39618C8.48294 7.39618 10.881 6.60858 10.881 5.63752C10.881 5.61992 10.8783 5.60233 10.8766 5.58504C10.9828 5.4579 11.0488 5.29662 11.0488 5.11832ZM2.74794 5.17867C2.48737 5.17867 2.27582 4.96708 2.27582 4.70624C2.27582 4.44541 2.48741 4.23382 2.74794 4.23382C3.00904 4.23382 3.22036 4.44514 3.22036 4.70624C3.22032 4.96708 3.00904 5.17867 2.74794 5.17867ZM4.69382 3.6984C4.43272 3.6984 4.2214 3.48681 4.2214 3.22597C4.2214 2.96514 4.43272 2.75355 4.69382 2.75355C4.95466 2.75355 5.16594 2.96514 5.16594 3.22597C5.16594 3.48681 4.95439 3.6984 4.69382 3.6984ZM6.69435 5.99739C6.43351 5.99739 6.22193 5.7858 6.22193 5.52496C6.22193 5.26413 6.43351 5.05285 6.69435 5.05285C6.95545 5.05285 7.16678 5.26417 7.16678 5.52496C7.16678 5.7858 6.95545 5.99739 6.69435 5.99739Z" transform="translate(5.16754 5.04396)" fill="white"/>
<path d="M12.5 0C5.60065 0 0 5.60065 0 12.5C0 19.3994 5.60065 25 12.5 25C19.3994 25 25 19.3994 25 12.5C25 5.60065 19.3994 0 12.5 0ZM12.5 23.1872C9.87554 23.1872 7.46753 22.2403 5.62771 20.671L8.28519 18.0722C7.77112 17.6393 7.64181 16.9316 7.37124 16.3904L4.35606 19.3723C2.75974 17.5325 1.81277 15.1245 1.81277 12.5C1.81277 6.60173 6.60173 1.81277 12.5 1.81277C15.1245 1.81277 17.5325 2.75974 19.3723 4.329L14.6718 9.05342C14.9153 9.70277 16.1427 9.7277 15.845 10.5123L20.671 5.60065C22.2403 7.46753 23.1872 9.87554 23.1872 12.4729C23.1872 18.3983 18.3983 23.1872 12.5 23.1872Z" fill="white"/>
</svg>
