<svg width="26" height="26" viewBox="0 0 26 26" fill="none" xmlns="http://www.w3.org/2000/svg">
<path d="M2.04359 10.5142C2.43415 10.3771 2.65732 9.93858 2.51784 9.55486V9.52745C2.26677 8.81482 2.09938 8.18443 2.12728 7.60885C2.15518 7.03327 2.37835 6.43028 2.68522 5.71766C2.82471 5.36134 2.99209 5.00503 3.15947 4.5939C3.32685 4.15537 3.49423 3.60719 3.49423 3.08643C3.52213 2.56567 3.43844 2.0175 3.27106 1.55155C3.18737 1.30487 3.07578 1.08561 2.93629 0.866337C2.79681 0.647069 2.65732 0.455209 2.43415 0.23594C2.26677 0.0440799 1.9878 -0.0381459 1.73672 0.0166713C1.34617 0.098897 1.09509 0.482617 1.17878 0.866337L1.23458 1.14042C1.26247 1.22265 1.31827 1.41451 1.37406 1.55155C1.40196 1.716 1.45775 1.85305 1.45775 2.0175C1.48565 2.31899 1.48565 2.62049 1.42986 2.89457C1.37406 3.19607 1.29037 3.44274 1.12299 3.74424L0.592946 4.86799C0.425564 5.25171 0.258182 5.69025 0.146594 6.15619C0.035006 6.62214 -0.0207879 7.1429 0.00710911 7.66366C0.0908001 8.70519 0.565049 9.63708 1.17878 10.3223C1.40196 10.5142 1.73672 10.6238 2.04359 10.5142Z" transform="translate(6.10242 0.438522)" fill="white"/>
<path d="M2.07149 10.5142C2.46205 10.3771 2.68522 9.93858 2.54574 9.55486L2.51784 9.52745C2.26677 8.81482 2.09938 8.18443 2.12728 7.60885C2.15518 7.03327 2.37835 6.43028 2.68522 5.71766C2.82471 5.36134 2.99209 5.00503 3.15947 4.5939C3.32685 4.15537 3.49423 3.60719 3.49423 3.08643C3.52213 2.56567 3.43844 2.0175 3.27106 1.55155C3.18737 1.30487 3.07578 1.08561 2.93629 0.866337C2.79681 0.647069 2.65732 0.455208 2.43415 0.23594C2.26677 0.0440798 1.9878 -0.0381459 1.73672 0.0166713C1.34616 0.098897 1.09509 0.482617 1.17878 0.866337L1.23458 1.14042C1.26247 1.22265 1.31827 1.41451 1.37406 1.55155C1.40196 1.716 1.45775 1.85305 1.45775 2.0175C1.48565 2.31899 1.48565 2.62049 1.42986 2.89457C1.37406 3.19607 1.29037 3.44274 1.12299 3.74424L0.592946 4.86799C0.425564 5.25171 0.258182 5.69025 0.146594 6.15619C0.035006 6.62214 -0.0207879 7.1429 0.00710911 7.66366C0.0908001 8.70519 0.565049 9.63708 1.17878 10.3223C1.42986 10.5142 1.76462 10.6238 2.07149 10.5142Z" transform="translate(11.2076)" fill="white"/>
<path d="M2.07149 10.5142C2.46205 10.3771 2.68522 9.93858 2.54574 9.55486L2.51784 9.52745C2.26677 8.81482 2.09939 8.18443 2.12728 7.60885C2.15518 7.03327 2.37835 6.43028 2.68522 5.71766C2.82471 5.36134 2.99209 5.00503 3.15947 4.5939C3.32685 4.15537 3.49423 3.60719 3.49423 3.08643C3.52213 2.56567 3.43844 2.0175 3.27106 1.55155C3.18737 1.30487 3.07578 1.08561 2.93629 0.866337C2.79681 0.647069 2.65732 0.455209 2.43415 0.23594C2.26677 0.0440799 1.9878 -0.0381459 1.73672 0.0166713C1.34617 0.098897 1.09509 0.482617 1.17878 0.866337L1.23458 1.14042C1.26247 1.22265 1.31827 1.41451 1.37406 1.55155C1.40196 1.716 1.45775 1.85305 1.45775 2.0175C1.48565 2.31899 1.48565 2.62049 1.42986 2.89457C1.37406 3.19607 1.29037 3.44274 1.12299 3.74424L0.592947 4.86799C0.425565 5.25171 0.258182 5.69025 0.146594 6.15619C0.035006 6.62214 -0.0207879 7.1429 0.00710911 7.66366C0.0908001 8.70519 0.56505 9.63708 1.17878 10.3223C1.42986 10.5142 1.76462 10.6238 2.07149 10.5142Z" transform="translate(16.3406 0.438522)" fill="white"/>
<path d="M26 3.78238C26 0.109634 14.3391 0 13 0C11.6609 0 0 0.109634 0 3.78238C0 4.49501 0.446352 5.07059 1.17167 5.53653C1.72961 9.8945 4.603 13.2109 13 13.2109C21.397 13.2109 24.2704 9.8945 24.8283 5.53653C25.5536 5.07059 26 4.49501 26 3.78238ZM13 2.08305C19.2489 2.08305 22.9313 3.12458 23.7682 3.78238C22.9313 4.44019 19.2489 5.48171 13 5.48171C6.75107 5.48171 3.06867 4.44019 2.23176 3.78238C3.06867 3.12458 6.75107 2.08305 13 2.08305Z" transform="translate(6.10352e-05 12.789)" fill="white"/>
</svg>
