<?xml version="1.0" encoding="utf-8"?>
<!-- Generator: Adobe Illustrator 17.0.0, SVG Export Plug-In . SVG Version: 6.00 Build 0)  -->
<!DOCTYPE svg PUBLIC "-//W3C//DTD SVG 1.1//EN" "http://www.w3.org/Graphics/SVG/1.1/DTD/svg11.dtd">
<svg version="1.1"
	 id="Capa_1" xmlns:inkscape="http://www.inkscape.org/namespaces/inkscape" xmlns:sodipodi="http://sodipodi.sourceforge.net/DTD/sodipodi-0.dtd" xmlns:svg="http://www.w3.org/2000/svg" xmlns:rdf="http://www.w3.org/1999/02/22-rdf-syntax-ns#" xmlns:cc="http://creativecommons.org/ns#" xmlns:dc="http://purl.org/dc/elements/1.1/"
	 xmlns="http://www.w3.org/2000/svg" xmlns:xlink="http://www.w3.org/1999/xlink" x="0px" y="0px" width="29px" height="24px"
	 viewBox="291.5 384 29 24" enable-background="new 291.5 384 29 24" xml:space="preserve">
<g transform="translate(0,-952.36218)">
	<path fill="#FFFFFF" d="M312.886,1336.362c-1.622,0.003-3.064,0.805-3.649,1.968c-1.081-0.179-2.368-0.047-3.444,0.572
		c1.566,1.354,1.916,3.891,1.649,5.709c0.464,0.708,0.769,1.515,0.839,2.356c0.617,0.344,1.235,0.723,1.776,0.785l0.185-2.937
		c-1.066-0.359-1.756-1.415-2.381-2.036c1.147,0.658,1.454,0.998,2.439,1.057c0.199-1.659,1.222-3.859,2.186-5.079
		c-0.361,1.059-0.727,2.125-0.624,3.703l2.498-0.349l-2.556,1.328c-0.442,0.76-0.575,1.435-0.634,2.414
		c0.905-0.241,2.268,0.04,3.415,0.698c-1.368-0.278-2.65-0.259-3.474,0.281c-0.199,1.659-0.1,3.235,0.546,5.632
		c-0.625-1.118-1.255-2.234-1.659-3.732c-0.577-0.331-1.193-0.828-1.698-1.406c0,0.673-0.291,1.355-0.722,2.036
		c-0.237,0.375-0.539,0.73-0.868,1.066c0.185,0.115,0.379,0.226,0.576,0.339c0.282,0.856,0.746,1.719,1.346,2.443
		c-0.534,1.16-0.928,2.319-1.19,3.47c-0.727-1.261-1.561-2.437-2.469-3.47c0.34-0.796,0.517-1.667,0.517-2.491
		c1.248-0.908,2.186-2.458,2.186-3.393c0-0.934-0.31-1.857-0.868-2.608c0.246-1.421,0.244-2.97-0.693-4.527
		c-1.561-2.18-3.747-2.171-5.62-1.241c-0.781-0.623-1.873-1.164-3.083-1.202c-1.21-0.038-2.537,0.427-3.786,1.823
		c-1.249,1.861-0.556,3.27,0.068,4.827c-1.873,0.934-2.252,2.614-2.186,4.672c-0.066,2.285,2.742,3.829,4.928,3.829
		c0.624,1.868,3.435,3.732,5.62,3.112c0.705-0.2,1.315-0.598,1.815-1.115c1.412,1.609,2.583,3.675,3.181,5.458l1.942-0.397
		c-0.319-1.718,0.496-4.21,1.132-5.448c0.642,0.305,1.325,0.563,1.922,0.572c2.186,0,4.375-2.484,4.488-4.546
		c2.072-0.729,3.942-2.898,3.942-4.76s-1.247-3.411-3.415-3.994c0.294-1.588-0.024-3.452-1.21-4.469
		C314.892,1336.646,313.859,1336.36,312.886,1336.362L312.886,1336.362z M297.439,1340.414c1.249,0.931,2.81,2.792,3.435,4.343
		c0.937-0.31,1.561-0.62,2.498-1.551c-0.624,0.931-1.249,1.861-2.186,2.482l0.937,2.792c0.625-0.245,1.249-0.992,1.873-1.551
		c-0.312,0.931-0.937,1.861-1.561,2.482c0,1.551-0.312,2.792-0.624,4.033c0-2.482-0.312-4.033-0.937-5.583
		c-0.937-0.31-2.186,0-3.435,0.62c0.937-0.931,2.186-1.551,3.122-1.551c-0.312-0.931-0.624-1.551-1.249-2.171l-2.81-0.62l2.498-0.31
		C298.688,1342.275,298.064,1341.345,297.439,1340.414L297.439,1340.414z"/>
</g>
</svg>
