<svg width="26" height="26" viewBox="0 0 26 26" fill="none" xmlns="http://www.w3.org/2000/svg">
<path d="M2.19178 22.2864C1.62871 22.2864 1.06992 22.0685 0.644639 21.6433C-0.115951 20.8826 -0.214621 19.6973 0.407953 18.824L12.8475 1.36427C13.4037 0.584075 14.2701 0.0910965 15.2246 0.011756C16.1806 -0.0697014 17.1153 0.275181 17.7923 0.952198L21.3341 4.49398C22.0114 5.17155 22.3542 6.10726 22.2746 7.06196C22.1949 8.01672 21.702 8.88256 20.9218 9.4385L3.46228 21.8781C3.07828 22.1521 2.63372 22.2864 2.19178 22.2864ZM15.4956 1.0834C15.4354 1.0834 15.3751 1.08603 15.3145 1.09132C14.6779 1.1442 14.1003 1.4727 13.7298 1.99264L1.29018 19.4524C0.975715 19.8935 1.02569 20.4923 1.40891 20.8758C1.79397 21.2614 2.39247 21.31 2.83359 20.9958L20.2933 8.55623C20.8132 8.18599 21.142 7.60837 21.1949 6.97204C21.248 6.33571 21.0195 5.71157 20.568 5.25987L17.0263 1.71808C16.6178 1.30978 16.0679 1.0834 15.4956 1.0834Z" transform="translate(0 3.71355)" fill="white"/>
<path d="M6.81956 6.4065C6.69475 6.4065 6.56939 6.36365 6.46727 6.27585C6.353 6.17957 3.81171 4.08022 0.855501 6.1833C0.626224 6.34566 0.309644 6.30705 0.127952 6.09125C-0.0537391 5.87597 -0.04053 5.55755 0.158649 5.35869L5.35834 0.158669C5.5699 -0.0528898 5.91267 -0.0528898 6.12423 0.158669C6.33579 0.370229 6.33579 0.712994 6.12423 0.924553L2.82336 4.22565C5.29879 3.87865 7.14875 5.4332 7.17309 5.45437C7.39975 5.64954 7.42538 5.99176 7.23021 6.21813C7.12316 6.34248 6.97189 6.4065 6.81956 6.4065Z" transform="translate(18.6386 1.078)" fill="white"/>
<path d="M0.663911 7.36125C0.539884 7.36125 0.415582 7.31896 0.314289 7.23327C0.0992787 7.0513 0.0593316 6.73555 0.222522 6.506C2.32771 3.54449 0.2199 1.00026 0.129146 0.893444C-0.0641887 0.665455 -0.0374508 0.3243 0.189203 0.130183C0.416363 -0.0634278 0.756735 -0.0385303 0.951128 0.187848C0.972298 0.212193 2.52606 2.06137 2.17957 4.53786L5.48066 1.23676C5.69222 1.0252 6.03499 1.0252 6.24655 1.23676C6.45811 1.44832 6.45811 1.79109 6.24655 2.00265L1.04685 7.20257C0.941603 7.30782 0.802987 7.36125 0.663911 7.36125Z" transform="translate(18.5163)" fill="white"/>
<path d="M3.44099 3.98234C3.30242 3.98234 3.1638 3.92946 3.05804 3.82366L0.158669 0.924553C-0.0528897 0.712994 -0.0528897 0.370229 0.158669 0.158669C0.370228 -0.0528898 0.712994 -0.0528898 0.924553 0.158669L3.82393 3.05777C4.03549 3.26933 4.03549 3.6121 3.82393 3.82366C3.71813 3.92946 3.57956 3.98234 3.44099 3.98234Z" transform="translate(8.59222 10.682)" fill="white"/>
<path d="M2.4323 2.9742C2.29373 2.9742 2.15511 2.92132 2.04935 2.81552L0.158669 0.924553C-0.0528897 0.712994 -0.0528897 0.370229 0.158669 0.158669C0.370228 -0.0528898 0.712993 -0.0528898 0.924552 0.158669L2.81524 2.04963C3.0268 2.26119 3.0268 2.60396 2.81524 2.81552C2.70943 2.92132 2.57086 2.9742 2.4323 2.9742Z" transform="translate(6.57538 13.7075)" fill="white"/>
<mask id="mask0" mask-type="alpha" maskUnits="userSpaceOnUse" x="4" y="16" width="3" height="3">
<path d="M1.42388 1.9655C1.28531 1.9655 1.1467 1.91263 1.04094 1.80682L0.158669 0.924553C-0.0528898 0.712994 -0.0528898 0.370229 0.158669 0.158669C0.370228 -0.0528898 0.712993 -0.0528898 0.924552 0.158669L1.80682 1.04094C2.01838 1.2525 2.01838 1.59526 1.80682 1.80682C1.70107 1.91263 1.5625 1.9655 1.42388 1.9655Z" transform="translate(4.55823 16.733)" fill="white"/>
</mask>
<g mask="url(#mask0)">
</g>
</svg>
